<?xml version="1.0" encoding="utf-8"?>
<!-- Generator: Adobe Illustrator 22.0.1, SVG Export Plug-In . SVG Version: 6.00 Build 0)  -->
<svg version="1.1" id="a" xmlns="http://www.w3.org/2000/svg" xmlns:xlink="http://www.w3.org/1999/xlink" x="0px" y="0px"
	 width="80px" height="80px" viewBox="0 0 80 80" style="enable-background:new 0 0 80 80;" xml:space="preserve">
<style type="text/css">
	.st0{fill:#54565A;}
	.st1{fill:none;stroke:#54565A;stroke-width:1.5;stroke-miterlimit:22.93;}
	.st2{fill:none;stroke:#54565A;stroke-width:4;stroke-miterlimit:10;}
	.st3{fill:#FFFFFF;stroke:#54565A;stroke-width:4;stroke-miterlimit:10;}
</style>
<path class="st0" d="M51.3,1.1c13.2,0,19.8,0,23.7,3.9c3.9,3.9,3.9,10.5,3.9,23.7v22.7c0,13.2,0,19.8-3.9,23.7s-10.5,3.9-23.7,3.9
	H28.7c-13.2,0-19.8,0-23.7-3.9c-3.9-3.9-3.9-10.5-3.9-23.7V28.7C1.1,15.5,1.1,8.8,5,5c3.9-3.9,10.5-3.9,23.7-3.9H51.3 M51.3,0H28.7
	C15.2,0,8.4,0,4.2,4.2S0,15.2,0,28.7v22.7c0,13.5,0,20.3,4.2,24.5C8.4,80,15.2,80,28.7,80h22.7c13.5,0,20.3,0,24.5-4.2
	c4.2-4.2,4.2-11,4.2-24.5V28.7c0-13.5,0-20.3-4.2-24.5S64.8,0,51.3,0L51.3,0L51.3,0z"/>
<path class="st1" d="M78.4,70.3c-3.7,0-7.2-1.7-9.6-4.6c-2,2.9-5.5,4.6-9.4,4.6l0,0c-3.7,0-7.2-1.7-9.6-4.6
	c-2.4,2.9-5.9,4.6-9.6,4.6c-3.7,0-7.2-1.7-9.6-4.6c-2.4,2.9-5.9,4.6-9.6,4.6s-7.2-1.7-9.6-4.6c-2.4,2.9-5.9,4.6-9.6,4.6"/>
<path class="st1" d="M79.6,60.2c-3.9,0-7.4-1.7-9.9-4.7c-2.1,3-5.7,4.7-9.7,4.7l0,0c-3.9,0-7.4-1.7-9.9-4.7c-2.5,3-6.1,4.7-9.9,4.7
	s-7.4-1.7-9.9-4.7c-2.5,3-6.1,4.7-9.9,4.7s-7.4-1.7-9.9-4.7c-2.5,3-6.1,4.7-9.9,4.7"/>
<g>
	<g>
		<line class="st2" x1="49.2" y1="31.4" x2="39.3" y2="79.5"/>
		<path class="st3" d="M30.3,35c3.6,0.7,6.7,2.2,8.3,3.9c2.1-0.9,5.5-1.1,9.2-0.3c3.6,0.7,6.7,2.2,8.3,3.9c2.1-0.9,5.5-1.1,9.2-0.3
			c3.6,0.7,6.5,2.2,8.2,3.8c1.4-13.5-8.7-21-22.3-23.8s-25.8,0.2-29.8,13.1C23.4,34.4,26.7,34.3,30.3,35z"/>
	</g>
	<path class="st1" d="M38.6,38.9c1.1-5.5,5.3-16.4,12.5-16.7"/>
	<path class="st1" d="M56,42.5c1.1-5.5,1.6-17.1-4.9-20.3"/>
</g>
</svg>
