<?xml version="1.0" encoding="utf-8"?>
<!-- Generator: Adobe Illustrator 22.0.1, SVG Export Plug-In . SVG Version: 6.00 Build 0)  -->
<svg version="1.1" id="a" xmlns="http://www.w3.org/2000/svg" xmlns:xlink="http://www.w3.org/1999/xlink" x="0px" y="0px"
	 width="80px" height="80px" viewBox="0 0 80 80" style="enable-background:new 0 0 80 80;" xml:space="preserve">
<style type="text/css">
	.st0{fill:#54565A;}
	.st1{fill:none;stroke:#54565A;stroke-width:2;stroke-miterlimit:10;}
	.st2{fill:#FFFFFF;stroke:#54565A;stroke-width:4;stroke-miterlimit:10;}
</style>
<path class="st0" d="M51.3,1.1c13.2,0,19.8,0,23.7,3.9c3.9,3.9,3.9,10.5,3.9,23.7v22.7c0,13.2,0,19.8-3.9,23.7s-10.5,3.9-23.7,3.9
	H28.7c-13.2,0-19.8,0-23.7-3.9c-3.9-3.9-3.9-10.5-3.9-23.7V28.7C1.1,15.5,1.1,8.8,5,5c3.9-3.9,10.5-3.9,23.7-3.9H51.3 M51.3,0H28.7
	C15.2,0,8.4,0,4.2,4.2S0,15.2,0,28.7v22.7c0,13.5,0,20.3,4.2,24.5C8.4,80,15.2,80,28.7,80h22.7c13.5,0,20.3,0,24.5-4.2
	c4.2-4.2,4.2-11,4.2-24.5V28.7c0-13.5,0-20.3-4.2-24.5S64.8,0,51.3,0L51.3,0L51.3,0z"/>
<path class="st1" d="M49.1,63.2c-3.3,0-6.2-1.8-7.7-4.5h-2.8c-1.5,2.7-4.4,4.5-7.7,4.5h-5.5c-4.9,0-8.9-4-8.9-8.9v-3.1
	c0-0.8-0.4-1.6-1-2.1c-2.1-1.6-3.5-4.2-3.5-7.1V38c0-2.9,1.4-5.5,3.5-7.1c0.7-0.5,1-1.3,1-2.1v-3.1c0-4.9,4-8.9,8.9-8.9h6.8
	c3.3,0,6.3,1.8,7.8,4.6c1.6-2.8,4.6-4.6,7.8-4.6h6.8c4.9,0,8.9,4,8.9,8.9v3.1c0,0.8,0.4,1.6,1,2.1c2.1,1.6,3.5,4.2,3.5,7.1V42
	c0,2.9-1.4,5.5-3.5,7.1c-0.7,0.5-1,1.3-1,2.1v3.1c0,4.9-4,8.9-8.9,8.9H49.1L49.1,63.2z"/>
<path class="st2" d="M49.1,58.9c-2.6,0-4.7-2.1-4.7-4.7v-0.7c-0.8,0.6-1.8,0.9-2.8,0.9h-3.3c-1,0-2-0.3-2.8-0.9v0.7
	c0,2.6-2.1,4.7-4.7,4.7h-5.5c-2.6,0-4.7-2.1-4.7-4.7v-5.1c0-1.3-0.7-2.4-1.9-3c-1.6-0.7-2.7-2.4-2.7-4.2V38c0-1.9,1.1-3.5,2.7-4.2
	c1.1-0.5,1.9-1.7,1.9-3v-5.1c0-2.6,2.1-4.7,4.7-4.7h6.8c1.8,0,3.5,1.1,4.2,2.7l3.6,7.8l3.6-7.8c0.8-1.7,2.4-2.7,4.2-2.7h6.8
	c2.6,0,4.7,2.1,4.7,4.7v5.1c0,1.3,0.7,2.4,1.9,3c1.6,0.7,2.7,2.4,2.7,4.2V42c0,1.9-1.1,3.5-2.7,4.2c-1.1,0.5-1.9,1.7-1.9,3v5.1
	c0,2.6-2.1,4.7-4.7,4.7L49.1,58.9L49.1,58.9z"/>
<path class="st0" d="M55,37.6V25.7c0-0.2-0.2-0.4-0.4-0.4h-6.8c-0.2,0-0.3,0.1-0.4,0.2L40,41.8l-7.4-16.3c-0.1-0.1-0.2-0.2-0.4-0.2
	h-6.8c-0.2,0-0.4,0.2-0.4,0.4v11.9h-4.2c-0.2,0-0.4,0.2-0.4,0.4v3.9c0,0.2,0.2,0.4,0.4,0.4H25v11.9c0,0.2,0.2,0.4,0.4,0.4h5.5
	c0.2,0,0.4-0.2,0.4-0.4V35.5L38,50c0.1,0.1,0.2,0.2,0.4,0.2h3.3c0.2,0,0.3-0.1,0.4-0.2l6.7-14.4v18.7c0,0.2,0.2,0.4,0.4,0.4h5.5
	c0.2,0,0.4-0.2,0.4-0.4V42.3h4.2c0.2,0,0.4-0.2,0.4-0.4V38c0-0.2-0.2-0.4-0.4-0.4H55L55,37.6z"/>
</svg>
