<?xml version="1.0" encoding="utf-8"?>
<!-- Generator: Adobe Illustrator 22.0.1, SVG Export Plug-In . SVG Version: 6.00 Build 0)  -->
<svg version="1.1" id="a" xmlns="http://www.w3.org/2000/svg" xmlns:xlink="http://www.w3.org/1999/xlink" x="0px" y="0px"
	 width="80px" height="80px" viewBox="0 0 80 80" style="enable-background:new 0 0 80 80;" xml:space="preserve">
<style type="text/css">
	.st0{fill:#54565A;}
	.st1{fill:#FFFFFF;}
</style>
<path class="st0" d="M51.3,1.3c13.1,0,19.7,0,23.5,3.9c3.9,3.9,3.9,10.4,3.9,23.5v22.5c0,13.1,0,19.7-3.9,23.5
	c-3.9,3.9-10.4,3.9-23.5,3.9H28.8c-13.1,0-19.7,0-23.6-3.9S1.3,64.3,1.3,51.2V28.7c0-13.1,0-19.7,3.9-23.5
	c3.9-3.9,10.5-3.9,23.6-3.9H51.3 M51.3,0.3H28.8c-13.4,0-20.1,0-24.3,4.2S0.3,15.3,0.3,28.7v22.5c0,13.4,0,20.1,4.2,24.3
	s10.9,4.2,24.3,4.2h22.5c13.4,0,20.1,0,24.3-4.2s4.1-10.9,4.1-24.3V28.7c0-13.4,0-20.1-4.2-24.3S64.7,0.3,51.3,0.3L51.3,0.3z"/>
<g>
	<path class="st0" d="M51.2,1.2c13.1,0,19.8,0,23.6,3.9c3.9,3.9,3.9,10.5,3.9,23.6v22.6c0,13.1,0,19.8-3.9,23.6s-10.4,3.9-23.6,3.9
		H28.6c-13.1,0-19.8,0-23.7-3.9C1.2,71,1.2,64.4,1.2,51.3V28.7C1.2,15.5,1.2,8.9,5,5s10.5-3.9,23.6-3.9H51.2 M51.2,0.1H28.6
		c-13.5,0-20.2,0-24.4,4.2S0.1,15.2,0.1,28.7v22.6c0,13.5,0,20.2,4.2,24.4c4.2,4.2,10.9,4.2,24.4,4.2h22.6c13.5,0,20.2,0,24.4-4.2
		c4.2-4.2,4.2-10.9,4.2-24.4V28.7c0-13.5,0-20.2-4.2-24.4C71.5,0.1,64.7,0.1,51.2,0.1L51.2,0.1z"/>
	<path class="st0" d="M79.7,39.9c0,5.3,0.1,10.6,0,15.9c-0.1,3.5-0.2,7-0.5,10.5c-0.2,2.4-0.7,4.8-1.9,7c-1.6,3-4.3,4.7-7.5,5.5
		c-2.6,0.6-5.3,0.9-8,1c-2.3,0.1-4.6,0.1-6.9,0.1c-10.2,0-20.4,0.1-30.5,0c-3.2,0-6.4-0.1-9.7-0.3c-2.7-0.2-5.3-0.6-7.7-1.9
		c-2.6-1.3-4.4-3.5-5.3-6.2c-0.8-2.2-1.2-4.6-1.3-7c-0.5-11.3-0.2-22.5-0.3-33.8c-0.1-3.3-0.1-6.6,0-9.8c0.1-3.3,0.2-6.7,0.9-10
		c0.6-2.6,1.6-5,3.6-6.9c1.6-1.5,3.5-2.3,5.6-2.8c2.6-0.6,5.2-0.9,7.8-0.9c12.7-0.1,25.3-0.1,38-0.1c3,0,6.1,0.1,9.1,0.3
		C67,0.6,68.9,1,70.8,1.5c4.1,1.2,6.6,4,7.8,8.2c0.7,2.7,1,5.5,1.1,8.3c0.1,7.3,0.2,14.7,0.2,22C79.8,39.9,79.8,39.9,79.7,39.9z
		 M1.1,54c0,0.3,0,0.6,0,0.9c0.1,2.7,0,5.4,0.2,8c0.2,2.3,0.4,4.5,0.9,6.8c0.6,3.2,2.4,5.7,5.3,7.2c1.9,1,3.9,1.4,6,1.6
		c3.1,0.2,6.2,0.5,9.3,0.5c13.4,0,26.8-0.1,40.1-0.2c2.4,0,4.7-0.3,7-0.9c4-1.1,6.5-3.5,7.7-7.5c0.8-2.7,1-5.5,1.1-8.3
		c0.1-3.6,0.2-7.2,0.2-10.7c0-10.4-0.1-20.8-0.1-31.2c0-3.4-0.2-6.8-1.1-10.2c-0.7-2.7-2.1-4.9-4.6-6.4c-1.5-0.9-3.2-1.4-5-1.8
		C64.7,1,61.2,1,57.8,1C45.5,0.9,33.2,1,20.8,1c-3.3,0-6.5,0.2-9.8,0.8c-4.7,1-7.8,3.7-8.9,8.5c-0.7,3.1-0.9,6.3-1,9.4
		c-0.1,1.2,0,2.4,0,3.7c0.9,0,1.6,0,2.4,0c1.6,0,2.8,1.2,2.8,2.8c0,1,0,2,0,2.9c0,0.4,0.2,0.5,0.5,0.5c0.6,0,1.3,0,1.9,0
		c2.4,0,4.1,1.2,4.9,3.6c0.7,2.3,1.5,4.6,2.4,7c0.9,2.5,1.7,5,2.5,7.5c0.5,1.8,0.2,3.4-1.2,4.8c-1.1,1.1-2.4,1.5-3.9,1.5
		c-3.1,0-6.2,0-9.2,0C3.3,54,2.2,54,1.1,54z M1.1,51.9c0.3,0,0.5,0,0.7,0c4,0,8,0,12,0c2.2,0,3.4-1.8,2.8-3.8
		c-1.6-4.8-3.3-9.6-4.9-14.4c-0.5-1.3-1.4-2-2.8-2c-2.4,0-4.7,0-7.1,0c-0.2,0-0.4,0-0.6,0.1C1.1,38.5,1.1,45.2,1.1,51.9z M1.1,29.6
		c1.2,0,2.2,0,3.3,0c0-1.2,0-2.3,0-3.4c0-0.4-0.3-0.7-0.7-0.7c-0.7-0.1-1.4-0.1-2.2,0c-0.2,0-0.4,0.2-0.4,0.4
		C1.1,27.1,1.1,28.3,1.1,29.6z"/>
	<path class="st1" d="M1.2,51.4c0-6.3,0-12.7,0-19c0.3,0,0.4-0.1,0.6-0.1c2.3,0,4.7,0,7.1,0c1.3,0,2.3,0.6,2.8,1.9
		c1.6,4.5,3.2,9,4.8,13.6c0.7,2-0.6,3.6-2.8,3.6c-3.9,0-7.9,0-11.9,0C1.6,51.4,1.5,51.4,1.2,51.4z"/>
	<path class="st1" d="M1.2,29.6c0-1.3,0-2.5,0-3.7c0-0.1,0.3-0.4,0.4-0.4c0.7-0.1,1.4-0.1,2.2,0c0.4,0,0.7,0.3,0.7,0.7
		c0,1.1,0,2.2,0,3.4C3.3,29.6,2.3,29.6,1.2,29.6z"/>
	<path class="st0" d="M44.1,29.5c0-1,0-2,0-3c0-2,1.2-3.1,3.3-3.1c2.4,0,4.8,0,7.3,0c1.9,0,3.1,1.2,3.1,3c0,1,0,2,0,3.1
		c0.3,0,0.5,0.1,0.7,0.1c3.1,0,6.2,0,9.3,0c2.4,0,4,1.5,4,3.8c0,3.1,0,6.2,0,9.4c0,2.4,0,4.8,0,7.3s-1.6,4-4.2,4
		c-11.1,0-22.2,0-33.4,0c-2.7,0-4.3-1.5-4.3-4.1c0-5.4,0-10.8,0-16.3c0-2,0.9-3.3,2.7-3.9c0.4-0.2,0.9-0.2,1.3-0.2
		c3.2,0,6.4,0,9.6,0C43.7,29.6,43.9,29.6,44.1,29.5z M39.6,51.9c7.7,0,15.2,0,22.8,0c0-0.2,0.1-0.4,0.1-0.6c0-6.3,0-12.7,0-19
		c0-0.6-0.2-0.7-0.8-0.7c-7.1,0-14.2,0-21.3,0c-0.6,0-0.8,0.2-0.8,0.7c0,6.3,0,12.5,0,18.9C39.6,51.4,39.6,51.6,39.6,51.9z
		 M37.4,51.9c0-0.3,0.1-0.6,0.1-0.8c0-2.8,0-5.6,0-8.5c0-3.5,0-7,0-10.5c0-0.5-0.2-0.7-0.7-0.6c-0.9,0.1-1.6,0-2.5,0
		c-1.4,0-2,0.6-2,1.9c0,5.5,0,11.1,0,16.5c0,0.2,0,0.4,0,0.6c0.1,0.7,0.6,1.3,1.3,1.3C34.9,51.9,36.1,51.9,37.4,51.9z M64.6,51.9
		c1.2,0,2.3,0,3.4,0s1.8-0.6,1.8-1.7c0-5.6,0-11.3,0-16.9c0-1.1-0.7-1.8-1.9-1.8c-0.9,0-1.6,0.1-2.5,0c-0.7-0.1-0.9,0.2-0.9,0.8
		c0,6.3,0,12.5,0,18.8C64.6,51.4,64.6,51.6,64.6,51.9z M51.1,29.5c1.3,0,2.7,0,4,0c0.5,0,0.6-0.2,0.6-0.6c-0.1-0.9,0-1.7,0-2.6
		c0-0.7-0.3-1-1-1c-2.5,0-4.9,0-7.4,0c-0.7,0-1,0.3-1,1c0,0.9,0,1.7,0,2.6c0,0.5,0.2,0.6,0.7,0.6C48.3,29.5,49.7,29.5,51.1,29.5z"/>
	<path class="st1" d="M39.6,51.9c0-0.3,0-0.5,0-0.7c0-6.3,0-12.5,0-18.9c0-0.6,0.2-0.7,0.8-0.7c7.1,0,14.2,0,21.3,0
		c0.6,0,0.8,0.2,0.8,0.7c0,6.3,0,12.7,0,19c0,0.2,0,0.4-0.1,0.6C54.8,51.9,47.3,51.9,39.6,51.9z"/>
	<path class="st1" d="M37.4,51.9c-1.3,0-2.6,0.1-3.8,0c-0.7-0.1-1.3-0.7-1.3-1.3c0-0.2,0-0.4,0-0.6c0-5.5,0-11.1,0-16.5
		c0-1.3,0.6-1.9,2-1.9c0.9,0,1.6,0.1,2.5,0c0.5,0,0.7,0.2,0.7,0.6c0,3.5,0,7,0,10.5c0,2.8,0,5.6,0,8.5
		C37.5,51.4,37.4,51.6,37.4,51.9z"/>
	<path class="st1" d="M64.6,51.9c0-0.3,0-0.6,0-0.8c0-6.3,0-12.5,0-18.8c0-0.6,0.2-0.9,0.9-0.8c0.9,0.1,1.6,0,2.5,0
		c1.2,0,1.9,0.6,1.9,1.8c0,5.6,0,11.3,0,16.9c0,1.1-0.6,1.7-1.8,1.7C66.9,51.9,65.8,51.9,64.6,51.9z"/>
	<path class="st1" d="M51.1,29.5c-1.4,0-2.8,0-4.1,0c-0.5,0-0.7-0.1-0.7-0.6c0.1-0.9,0-1.7,0-2.6c0-0.7,0.3-1,1-1c2.5,0,4.9,0,7.4,0
		c0.7,0,1,0.3,1,1c0,0.9,0,1.7,0,2.6c0,0.5-0.2,0.6-0.6,0.6C53.8,29.5,52.4,29.5,51.1,29.5z"/>
</g>
</svg>
