<?xml version="1.0" encoding="utf-8"?>
<!-- Generator: Adobe Illustrator 22.0.1, SVG Export Plug-In . SVG Version: 6.00 Build 0)  -->
<svg version="1.1" id="a" xmlns="http://www.w3.org/2000/svg" xmlns:xlink="http://www.w3.org/1999/xlink" x="0px" y="0px"
	 width="80px" height="80px" viewBox="0 0 80 80" style="enable-background:new 0 0 80 80;" xml:space="preserve">
<style type="text/css">
	.st0{fill:#54565A;}
	.st1{fill:#FFFFFF;stroke:#54565A;stroke-width:4;stroke-miterlimit:10;}
	.st2{fill:none;stroke:#54565A;stroke-width:2;stroke-miterlimit:10;}
</style>
<path class="st0" d="M51.3,1.1c13.2,0,19.8,0,23.7,3.9c3.9,3.9,3.9,10.5,3.9,23.7v22.7c0,13.2,0,19.8-3.9,23.7
	c-3.9,3.9-10.5,3.9-23.7,3.9H28.6c-13.2,0-19.8,0-23.7-3.9c-3.9-3.9-3.9-10.5-3.9-23.7V28.7c0-13.2,0-19.8,3.9-23.7
	c3.9-3.9,10.5-3.9,23.7-3.9H51.3 M51.3,0.1H28.6c-13.5,0-20.3,0-24.5,4.2S0,15.2,0,28.7v22.7c0,13.5,0,20.3,4.2,24.5
	S15.1,80,28.6,80h22.7c13.5,0,20.3,0,24.5-4.2s4.2-10.9,4.2-24.5V28.7c0-13.5,0-20.3-4.2-24.5S64.8,0.1,51.3,0.1
	C51.3,0.1,51.3,0.1,51.3,0.1z"/>
<path class="st1" d="M20.5,46.9c0,8.2,0,12.2,2.5,14.8c2.5,2.5,6.6,2.5,14.8,2.5h4.4c8.2,0,12.2,0,14.8-2.5
	c2.5-2.5,2.5-6.6,2.5-14.8V33.2c0-8.2,0-12.2-2.5-14.8s-6.6-2.5-14.8-2.5h-4.4c-8.2,0-12.2,0-14.8,2.5s-2.5,6.6-2.5,14.8
	C20.5,33.2,20.5,46.9,20.5,46.9z"/>
<line class="st2" x1="21.1" y1="28.5" x2="58.9" y2="28.5"/>
<g>
	<path class="st0" d="M28.1,43.1c0.1-3.2,2.1-5.2,5.4-5.2c3,0,5.2,1.7,5.2,4.2c0,1.5-0.9,2.7-2.2,3.1c1.7,0.4,2.8,1.7,2.8,3.6
		c0,3-2.4,5-5.7,5c-3.6,0-5.7-2.1-5.7-5.6h3c0,1.9,0.9,2.9,2.6,2.9c1.5,0,2.6-0.9,2.6-2.3c0-0.7-0.3-1.4-0.8-1.8
		c-0.5-0.4-1-0.5-2-0.5c-0.3,0-0.5,0-0.8,0v-2.2c0.2,0,0.4,0,0.5,0c1.8,0,2.7-0.6,2.7-1.9c0-1.1-0.9-1.9-2.1-1.9
		c-1.5,0-2.3,0.9-2.3,2.6L28.1,43.1L28.1,43.1z"/>
	<path class="st0" d="M51.3,40.5c0.8,1.4,1.2,3.3,1.2,5.4c0,4.9-2.1,7.9-5.6,7.9c-3.5,0-5.7-2.9-5.7-7.9s2.1-8,5.7-8
		C48.7,38,50.4,38.9,51.3,40.5L51.3,40.5z M44.2,46.1c0,3.5,0.9,5.2,2.6,5.2c1.7,0,2.6-1.7,2.6-5.4s-0.8-5.4-2.6-5.4
		C45,40.5,44.2,42.2,44.2,46.1z"/>
</g>
<circle class="st2" cx="28.5" cy="23.1" r="1.8"/>
<circle class="st2" cx="51.5" cy="23.1" r="1.8"/>
</svg>
