<?xml version="1.0" encoding="utf-8"?>
<!-- Generator: Adobe Illustrator 22.0.1, SVG Export Plug-In . SVG Version: 6.00 Build 0)  -->
<svg version="1.1" id="a" xmlns="http://www.w3.org/2000/svg" xmlns:xlink="http://www.w3.org/1999/xlink" x="0px" y="0px"
	 width="80px" height="80px" viewBox="0 0 80 80" style="enable-background:new 0 0 80 80;" xml:space="preserve">
<style type="text/css">
	.st0{fill:#54565A;}
	.st1{fill:none;stroke:#54565A;stroke-width:1.5;stroke-miterlimit:22.93;}
	.st2{fill:#FFFFFF;stroke:#54565A;stroke-width:1.5;stroke-miterlimit:22.93;}
	.st3{fill:#FFFFFF;}
</style>
<path class="st0" d="M51.3,1.1c13.2,0,19.8,0,23.7,3.9c3.9,3.9,3.9,10.5,3.9,23.7v22.7c0,13.2,0,19.8-3.9,23.7
	c-3.9,3.9-10.5,3.9-23.7,3.9H28.7c-13.2,0-19.8,0-23.7-3.9c-3.9-3.9-3.9-10.5-3.9-23.7V28.7c0-13.2,0-19.8,3.9-23.7
	c3.9-3.9,10.5-3.9,23.7-3.9H51.3 M51.3,0H28.7C15.1,0,8.4,0,4.2,4.2S0,15.2,0,28.7v22.7c0,13.5,0,20.3,4.2,24.5
	C8.4,80,15.1,80,28.7,80h22.7c13.5,0,20.3,0,24.5-4.2s4.2-11,4.2-24.5V28.7c0-13.5,0-20.3-4.2-24.5S64.8,0,51.3,0
	C51.3,0,51.3,0,51.3,0z"/>
<g>
	<path class="st0" d="M53.8,80C41.2,64,33.6,32.7,34.2,21.8c1.7,0,1.7,0.6,3.4,0c2.8-0.6,5.1,4,5.6,7.9c0.6-2.3,0.6-4,1.1-5.6
		c2.8,3.4,4.5,8.5,4.5,11.9c4.5-9.6,1.7-16.9-10.7-15.8c0.6-1.7,1.7-1.7,2.3-3.4c0.6,1.1,4,1.7,4,1.7c1.1-1.1,1.1-3.4,1.7-5.1
		c1.7,2.3,2.8,4.5,6.8,7.3c0.6-1.7-1.7-5.1-1.7-6.2c1.7-0.6,4.5,4.5,5.6,6.8C55.6,7.7,44.3,9.4,35.3,18.4c1.1-1.1,2.3-2.8,4-4
		c-0.6-0.6-0.6-2.3-1.7-2.8c1.7-1.1,3.4,0,4,0.6c1.1-1.7,1.7-2.8,2.8-4.5c0-1.1-1.1-2.8-2.3-3.4c1.7-0.6,4,0,5.1,1.7
		c0-1.7,0-2.8,0.6-4.5c2.3,3.4,4,5.1,8.5,2.8c0,0-2.3-0.6-6.8-4C49.2,0.2,49,0.1,48.8,0h-5.2c-4.8,2.7-7.6,12.4-8.8,17.8v-0.6
		C34.2,14.4,37,7.1,37,7.1l-1.7-4.5l3.4,1.1L40.5,0H34c-1,1.8-1.5,6.1-1,9.4c-1-3.4-2.4-7.3-3.9-9.4H29c-3.1,0-5.9,0-8.3,0.1l0,0.3
		l4,4.5L28,2.6l-0.6,5.6c0,0,4.5,2.8,4.5,5.6c0,0.6,0,1.7-0.6,2.8c-1.1-2.8-3.4-7.3-5.6-8.5C22.9,6,17.2,2.6,13.8,7.1
		c-3.4,4-4.5,8.5-4.5,8.5s3.4-0.6,4.5-2.3c1.1-2.3,1.7-6.2,1.7-6.2l1.7,4l4.5-3.4v4l2.8,3.4l3.4-0.6l0.6,2.8
		c-3.4-1.7-8.5-2.8-11.3-1.7c-6.8,1.7-8.5,7.3-9,10.2c-0.6,2.8-2.3,7.3-2.3,7.3s2.3-1.7,4-4.5c1.7-2.8,1.1-6.8,1.1-6.8l3.4,4
		l1.7-7.9l4,2.8c3.4-1.1,4.5-0.6,7.3,0c-1.7,0-7.3,2.3-11.3,11.3c-4.5,10.7-2.8,15.8-2.8,15.8s2.3-1.7,3.4-5.6
		c1.7-3.4,0.6-6.2,0.6-6.2l4.5,2.8l-2.3-7.9l4.5,1.7c0.6-4.5,1.7-11.3,7.3-11.9l0.6,0.6c1,15.1,5.5,40.3,14.1,58.8h5.6
		C52.4,80,53.1,80,53.8,80L53.8,80z"/>
	<path class="st0" d="M65.8,79.6c6.8-15.1,11.7-35.5,13.8-49.4l0,0c0.1,0,0.3,0.1,0.4,0.1v-1.7c0-1,0-2,0-2.9
		c-0.1,0.2-0.3,0.4-0.4,0.6V24c0-0.5,0.1-1.1,0.4-1.6c0-1.9-0.1-3.6-0.1-5.2c-0.3,0.9-0.5,1.8-0.8,2.8c0-3.4,0-7.3-1.1-9.6
		c-2.3-4-9.8-7.7-9.8-7.7s-0.5,1.5,0.6,3.8c1.1,2.3,4.2,0.6,4.2,0.6l-1.1,2.8l2.3,4.5l2.8-1.1l-1.7,4.5c0,0,2.3,6.2,1.7,9v0.6
		C75.6,20.6,71.7,6.5,64.3,11c-4.5,2.3-7.3,5.6-7.3,5.6s3.4,1.1,5.1-0.6c1.7-1.1,3.4-4,3.4-4v4c1.7-1.7,3.4-1.7,5.1-1.7
		c-0.6,1.1-1.7,2.3-1.7,3.4c0,1.1,1.1,2.8,1.7,4c0.6,0,2.3-1.1,4-0.6c-1.1,1.1-1.7,2.3-1.7,2.8c1.7,1.1,2.8,2.8,3.4,4
		c-2.3-2.8-6.2-6.8-10.2-6.8c-7.9-1.1-11.3,5.1-13.5,11.3c2.8-2.8,5.1-3.4,6.8-7.9l1.1,4.5l4-6.2l2.3,3.4c0,0,4,0.6,5.6,2.3
		c0.6,0,0.6,0.6,1.1,0.6c-1.7,0-7.3,0.6-13.5,6.8c-5.6,5.6-5.1,14.7-5.1,14.7c3.4-1.7,1.7-7.3,4.5-9.6c1.7,0.6,2.3,2.3,2.8,4
		c0.6-2.3,0.8-4.6,0.6-7.3c1.1,0,1.7,1.7,1.7,3.4c0,0,6.8-10.2,9.6-10.2h2.8c0,8.8-6.7,33-17.1,49.1C62,79.9,64,79.8,65.8,79.6
		L65.8,79.6z"/>
</g>
<g>
	<path class="st1" d="M20.8,63.9c1.1,6.2,12.6,15.4,29.1,7C60.3,65.5,70.9,57,72.8,53.9"/>
	<g>
		<path class="st2" d="M21.2,61.7l27.4,12.8c0.7,0.3,1.1,1.2,0.7,1.9l-0.6,1.3c-0.3,0.7-1.2,1.1-1.9,0.7L19.4,65.7
			c-0.7-0.3-1.1-1.2-0.7-1.9l0.6-1.3C19.6,61.7,20.5,61.4,21.2,61.7z"/>
		<circle class="st2" cx="20.8" cy="63.9" r="0.3"/>
	</g>
	<g>
		<path class="st2" d="M74.2,55.7L25.4,78.4c-0.7,0.3-1.6,0-1.9-0.7l-0.6-1.3c-0.3-0.7,0-1.6,0.7-1.9l48.8-22.8
			c0.7-0.3,1.6,0,1.9,0.7l0.6,1.3C75.2,54.5,74.9,55.3,74.2,55.7z"/>
		<circle class="st2" cx="72.8" cy="53.9" r="0.3"/>
	</g>
</g>
<g>
	<g>
		<path class="st3" d="M29.8,52.1c-5.6,0-8.4,0-10.2-1.9c-1.9-1.9-1.9-4.7-1.9-10.2s0-8.4,1.9-10.2c1.9-1.9,4.7-1.9,10.2-1.9h20.4
			c5.6,0,8.4,0,10.2,1.9c1.9,1.9,1.9,4.7,1.9,10.2s0,8.4-1.9,10.2c-1.9,1.9-4.7,1.9-10.2,1.9H29.8z"/>
		<path class="st0" d="M50.2,28.4c5.5,0,8.2,0,9.9,1.7c1.7,1.7,1.7,4.4,1.7,9.9s0,8.2-1.7,9.9c-1.7,1.7-4.4,1.7-9.9,1.7H29.8
			c-5.5,0-8.2,0-9.9-1.7c-1.7-1.7-1.7-4.4-1.7-9.9s0-8.2,1.7-9.9c1.7-1.7,4.4-1.7,9.9-1.7H50.2 M50.2,27.4H29.8c-5.7,0-8.6,0-10.6,2
			s-2,4.9-2,10.6s0,8.6,2,10.6c2,2,4.9,2,10.6,2h20.4c5.7,0,8.6,0,10.6-2c2-2,2-4.9,2-10.6s0-8.6-2-10.6
			C58.8,27.4,56,27.4,50.2,27.4C50.2,27.4,50.2,27.4,50.2,27.4z"/>
	</g>
	<g>
		<path class="st0" d="M28.9,39.4c-0.1-0.7-0.5-0.9-1.3-0.9c-0.7,0-1.1,0.2-1.1,0.7c0,0.5,0.2,0.6,1.7,0.9c2,0.4,2.7,1,2.7,2.2
			c0,1.5-1.2,2.4-3.3,2.4s-3.2-0.8-3.3-2.5h1.8c0.1,0.8,0.5,1.2,1.5,1.2c0.8,0,1.3-0.3,1.3-0.9c0-0.5-0.3-0.6-1.6-0.9
			c-1.3-0.3-1.6-0.4-2-0.6c-0.5-0.3-0.9-0.9-0.9-1.5c0-1.3,1.1-2.1,3.1-2.1c1.2,0,2.1,0.3,2.6,0.9c0.3,0.3,0.4,0.7,0.5,1.3
			L28.9,39.4L28.9,39.4z"/>
		<path class="st0" d="M38.7,36.5c0,0-0.1,0.1-0.1,0.1c-0.1,0.1-0.3,0.3-0.4,0.4c-1.7,2-2.5,4.2-2.7,7.3h-2c0-2.4,1.5-6,3.2-7.7
			c-1,0-1.1,0-1.3,0h-3.2v-1.8h6.5L38.7,36.5L38.7,36.5z"/>
		<path class="st0" d="M41.3,44.4h-2.2v-2.1h2.2V44.4z"/>
		<path class="st0" d="M47.6,39c-0.3-0.1-0.5-0.1-0.8-0.1c-0.7,0-1.2,0.3-1.6,0.9C45,40.1,45,40.6,45,41.4v2.9h-1.9v-7h1.8v1.3
			c0.5-1,1.2-1.4,2.3-1.4c0.1,0,0.2,0,0.4,0L47.6,39L47.6,39z"/>
		<path class="st0" d="M55,44.4h-1.8v-1c-0.6,0.8-1.3,1.2-2.3,1.2c-0.8,0-1.5-0.3-2-0.8c-0.3-0.4-0.5-1-0.5-1.9v-4.4h1.9v3.9
			c0,0.8,0,1,0.2,1.3c0.2,0.3,0.6,0.5,1,0.5c0.6,0,1.1-0.3,1.3-0.8c0.1-0.3,0.2-0.6,0.2-1.4v-3.5H55C55,37.3,55,44.4,55,44.4z"/>
	</g>
</g>
</svg>
