<?xml version="1.0" encoding="utf-8"?>
<!-- Generator: Adobe Illustrator 22.0.1, SVG Export Plug-In . SVG Version: 6.00 Build 0)  -->
<svg version="1.1" id="a" xmlns="http://www.w3.org/2000/svg" xmlns:xlink="http://www.w3.org/1999/xlink" x="0px" y="0px"
	 width="80px" height="80px" viewBox="0 0 80 80" style="enable-background:new 0 0 80 80;" xml:space="preserve">
<style type="text/css">
	.st0{fill:#54565A;}
	.st1{fill:#FFFFFF;stroke:#54565A;stroke-width:4;stroke-miterlimit:10;}
	.st2{fill:#FFFFFF;stroke:#54565A;stroke-width:1.5;stroke-miterlimit:22.93;}
	.st3{fill:#FFFFFF;}
	.st4{fill:#54565A;stroke:#FFFFFF;stroke-width:1.5;stroke-miterlimit:22.93;}
</style>
<path class="st0" d="M51.6,1.7c13.1,0,19.7,0,23.5,3.9c3.9,3.9,3.9,10.4,3.9,23.5v22.5c0,13.1,0,19.7-3.9,23.5
	C71.2,79,64.7,79,51.6,79H29.1C16,79,9.4,79,5.5,75.1c-3.9-3.9-3.9-10.4-3.9-23.5V29.1c0-13.1,0-19.7,3.9-23.5
	C9.4,1.7,16,1.7,29.1,1.7H51.6 M51.6,0.7H29.1c-13.4,0-20.1,0-24.3,4.2S0.6,15.7,0.6,29.1v22.5c0,13.4,0,20.1,4.2,24.3
	c4.2,4.2,10.9,4.2,24.3,4.2h22.5c13.4,0,20.1,0,24.3-4.2S80,65,80,51.6V29.1C80,15.7,80,9,75.8,4.8S65,0.7,51.6,0.7
	C51.6,0.7,51.6,0.7,51.6,0.7z"/>
<path class="st1" d="M39.6,67.9c-6.6,0-9.9,0-12.2-2.2s-2.2-5.6-2.2-12.2V27.2c0-6.6,0-9.9,2.2-12.2s5.6-2.2,12.2-2.2H41
	c6.6,0,9.9,0,12.2,2.2s2.2,5.6,2.2,12.2v26.2c0,6.6,0,9.9-2.2,12.2c-2.2,2.2-5.6,2.2-12.2,2.2C41,67.9,39.6,67.9,39.6,67.9z"/>
<path class="st2" d="M34.8,16.5c0-0.4-0.1-0.6-0.2-0.7c-0.1-0.1-0.3-0.1-0.7-0.1c-2.1,0.1-3.5,0.5-4.4,1.4C28,18.6,28,21.1,28,25.9
	v28.9c0,4.8,0,7.3,1.5,8.8c1.5,1.5,3.9,1.5,8.8,1.5h4.1c4.8,0,7.3,0,8.8-1.5c1.5-1.5,1.5-3.9,1.5-8.8V25.9c0-4.8,0-7.3-1.5-8.8
	c-1-1-2.3-1.3-4.4-1.4c-0.4,0-0.6,0-0.7,0.1c-0.1,0.1-0.1,0.3-0.2,0.7c0,0.2-0.1,0.4-0.2,0.5c-0.1,0.1-0.2,0.2-0.3,0.3
	c-0.3,0.2-0.7,0.2-1.4,0.2h-7.3c-0.8,0-1.1,0-1.4-0.2c-0.1-0.1-0.2-0.2-0.3-0.3C34.9,16.9,34.8,16.7,34.8,16.5L34.8,16.5z"/>
<g>
	<path class="st0" d="M48,56.7c0-1.9,0-2.9-0.6-3.5c-0.6-0.6-1.6-0.6-3.5-0.6h-7.3c-1.9,0-2.9,0-3.5,0.6c-0.6,0.6-0.6,1.6-0.6,3.5
		c0,1.9,0,2.9,0.6,3.5c0.6,0.6,1.6,0.6,3.5,0.6h7.3c1.9,0,2.9,0,3.5-0.6C48,59.6,48,58.6,48,56.7z"/>
	<g>
		<path class="st3" d="M36.4,56.4c0-0.2-0.2-0.3-0.5-0.3c-0.2,0-0.4,0.1-0.4,0.2c0,0.2,0.1,0.2,0.6,0.3c0.7,0.1,1,0.3,1,0.8
			c0,0.5-0.4,0.8-1.2,0.8c-0.7,0-1.1-0.3-1.2-0.9h0.7c0,0.3,0.2,0.4,0.5,0.4c0.3,0,0.5-0.1,0.5-0.3c0-0.2-0.1-0.2-0.6-0.3
			c-0.5-0.1-0.6-0.1-0.7-0.2c-0.2-0.1-0.3-0.3-0.3-0.5c0-0.5,0.4-0.8,1.1-0.8c0.4,0,0.7,0.1,0.9,0.3c0.1,0.1,0.2,0.2,0.2,0.5
			L36.4,56.4L36.4,56.4z"/>
		<path class="st3" d="M39.8,55.4C39.8,55.4,39.8,55.4,39.8,55.4c-0.1,0.1-0.1,0.1-0.2,0.2c-0.6,0.7-0.9,1.5-0.9,2.6H38
			c0-0.8,0.5-2.1,1.1-2.7c-0.4,0-0.4,0-0.5,0h-1.1v-0.6h2.3L39.8,55.4L39.8,55.4z"/>
		<path class="st3" d="M40.8,58.2H40v-0.8h0.8V58.2z"/>
		<path class="st3" d="M43,56.3c-0.1,0-0.2,0-0.3,0c-0.2,0-0.4,0.1-0.6,0.3c-0.1,0.1-0.1,0.3-0.1,0.6v1h-0.7v-2.5H42v0.5
			c0.2-0.3,0.4-0.5,0.8-0.5c0.1,0,0.1,0,0.2,0C43,55.7,43,56.3,43,56.3z"/>
		<path class="st3" d="M45.6,58.2H45v-0.3c-0.2,0.3-0.5,0.4-0.8,0.4c-0.3,0-0.5-0.1-0.7-0.3c-0.1-0.1-0.2-0.3-0.2-0.7v-1.6H44v1.4
			c0,0.3,0,0.4,0.1,0.5c0.1,0.1,0.2,0.2,0.4,0.2c0.2,0,0.4-0.1,0.5-0.3c0.1-0.1,0.1-0.2,0.1-0.5v-1.2h0.7L45.6,58.2L45.6,58.2z"/>
	</g>
</g>
<path class="st0" d="M48,40c0,1.9,0,2.9-0.6,3.5c-0.6,0.6-1.6,0.6-3.5,0.6h-7.3c-1.9,0-2.9,0-3.5-0.6c-0.6-0.6-0.6-1.6-0.6-3.5v-7.3
	c0-1.9,0-2.9,0.6-3.5c0.6-0.6,1.6-0.6,3.5-0.6h7.3c1.9,0,2.9,0,3.5,0.6c0.6,0.6,0.6,1.6,0.6,3.5V40z"/>
<path class="st3" d="M40.3,31.7c-2.6,0-4.7,2.1-4.7,4.7s2.1,4.7,4.7,4.7c2.6,0,4.7-2.1,4.7-4.7C45,33.8,42.9,31.7,40.3,31.7z
	 M40.3,34.7h-0.5c-0.5,0-0.8,0-1,0.1c-0.2,0.1-0.3,0.1-0.4,0.2c-0.1,0.1-0.1,0.2-0.1,0.3c0,0.1,0,0.2,0.1,0.3
	c0.1,0.1,0.3,0.3,0.7,0.5c0.8,0.5,1,0.9,1,1.4c0,0.8-0.8,1.6-2.1,1.6c-0.4,0-0.9-0.1-1.2-0.1l-0.1,0c0-0.2,0.2-0.6,0.3-0.8l0.1,0
	c0.3,0.1,0.7,0.1,0.9,0.1c0.8,0,1-0.3,1-0.6c0-0.3-0.1-0.4-0.9-0.9c-0.7-0.4-0.9-0.8-0.9-1.3c0-0.6,0.4-1.1,1-1.3
	c0.3-0.1,0.8-0.2,1.6-0.2h0.7L40.3,34.7L40.3,34.7z M43.5,34.1c-0.1,0.4-1.6,3.9-1.6,3.9H41c0,0,1.1-2.8,1.3-3.3c-0.1,0-0.2,0-0.7,0
	h-0.8l0.3-0.8h2.3C43.5,33.9,43.6,34,43.5,34.1L43.5,34.1z"/>
<circle class="st4" cx="47.3" cy="29.3" r="2.5"/>
<path class="st3" d="M47.6,30.4h-0.5V29h-0.5v-0.3c0.4,0,0.6-0.1,0.6-0.4h0.4C47.6,28.2,47.6,30.4,47.6,30.4z"/>
</svg>
